<svg width="329" height="38" viewBox="0 0 329 38" fill="none" xmlns="http://www.w3.org/2000/svg">
<path d="M253.102 29.5511C250.161 29.5511 247.67 28.512 245.632 26.4337C243.595 24.358 242.576 21.8468 242.576 18.9052C242.576 15.9635 243.6 13.4243 245.648 11.346C247.695 9.27033 250.181 8.2312 253.102 8.2312C255.229 8.2312 257.142 8.82208 258.843 10.0064C260.542 11.1881 261.8 12.7545 262.615 14.7028L260.109 15.4185C259.472 13.9871 258.543 12.8487 257.32 12.0031C256.098 11.1576 254.692 10.7373 253.1 10.7373C250.854 10.717 248.974 11.4963 247.464 13.0779C245.953 14.6595 245.197 16.6028 245.197 18.9077C245.197 21.2126 245.948 23.0973 247.448 24.6764C248.948 26.258 250.833 27.0475 253.097 27.0475C254.707 27.0475 256.113 26.6349 257.318 25.8098C258.52 24.9846 259.439 23.8563 260.076 22.425L262.61 23.1101C261.795 25.0381 260.542 26.5942 258.853 27.7759C257.162 28.9602 255.244 29.5511 253.097 29.5511H253.102Z" fill="white"/>
<path d="M265.949 29.6226V8.37402H280.915V10.8318H268.621V17.7822H279.7V20.1814H268.621V29.6226H265.949Z" fill="white"/>
<path d="M283.645 29.653V8.34326H290.748C293.805 8.34326 296.374 9.36456 298.458 11.4097C300.541 13.4548 301.593 15.9839 301.613 18.9994C301.613 22.0149 300.572 24.544 298.486 26.5891C296.402 28.6342 293.82 29.6555 290.746 29.6555H283.643L283.645 29.653ZM286.317 27.1341H290.748C293.155 27.1341 295.129 26.3599 296.667 24.8114C298.206 23.2629 298.975 21.3247 298.975 18.9994C298.975 16.6741 298.201 14.6799 296.652 13.1416C295.104 11.6033 293.135 10.8341 290.748 10.8341H286.317V27.1341Z" fill="white"/>
<path d="M311.027 29.666C308.699 29.666 306.401 28.907 304.135 27.3891V24.5366C304.904 25.3261 305.9 26.0036 307.125 26.5715C308.35 27.1395 309.638 27.4222 310.996 27.4222C312.17 27.4222 313.095 27.1904 313.772 26.7243C314.45 26.2583 314.778 25.6827 314.758 24.995C314.758 24.3889 314.419 23.8769 313.741 23.4618C313.064 23.0466 311.885 22.657 310.204 22.2928C308.121 21.8471 306.582 21.2817 305.589 20.5915C304.598 19.9038 304.102 18.9513 304.102 17.739C304.102 16.3025 304.738 15.1641 306.014 14.3236C307.29 13.4831 308.765 13.0654 310.446 13.0654C312.509 13.0654 314.585 13.6716 316.668 14.8864V17.4359C314.462 16.0198 312.389 15.3118 310.446 15.3118C309.435 15.3118 308.543 15.5334 307.774 15.9791C307.005 16.4248 306.62 17.0105 306.62 17.739C306.62 18.4062 306.974 18.8978 307.682 19.211C308.391 19.5243 309.687 19.8732 311.566 20.2578C313.629 20.6831 315.091 21.2842 315.952 22.0636C316.813 22.8429 317.243 23.8082 317.243 24.9619C317.243 26.4595 316.655 27.6183 315.484 28.4384C314.309 29.2585 312.822 29.6685 311.021 29.6685L311.027 29.666Z" fill="white"/>
<path d="M18.3075 20.26H4.97711V29.5917H0.978516V11.3102C0.978516 10.4774 1.27905 9.76172 1.87756 9.16321C2.47608 8.56469 3.19175 8.26416 4.02458 8.26416H18.3075V12.2628H4.97711V16.2614H18.3075V20.26Z" fill="white"/>
<path d="M157.209 8.26416V19.7073L145.18 8.26416H157.209Z" fill="white"/>
<path d="M138.572 8.28198H137.408C136.644 8.31764 135.984 8.61562 135.424 9.17339C134.907 9.69041 134.614 10.294 134.545 10.9868V29.5917H138.544V14.5881L154.39 29.5917H157.204V26.0235L138.569 8.28198H138.572Z" fill="white"/>
<path d="M41.6627 27.651C41.6627 27.9286 41.6143 28.1858 41.515 28.4253C41.4157 28.6621 41.2782 28.8684 41.0973 29.0416C40.919 29.2148 40.7102 29.3523 40.4733 29.4516C40.2365 29.551 39.9818 29.5994 39.7144 29.5994H30.9964C30.1738 29.5994 29.3409 29.5102 28.4979 29.3319C27.6549 29.1537 26.8399 28.8786 26.0504 28.5068C25.2608 28.1349 24.5197 27.6612 23.8269 27.0856C23.1316 26.51 22.5255 25.8274 22.0034 25.0404C21.4838 24.2535 21.0738 23.3493 20.7758 22.3331C20.4778 21.3169 20.3301 20.1836 20.3301 18.933V8.26671H24.1988V18.933C24.1988 20.0231 24.3491 20.9476 24.6521 21.6989C24.9552 22.4528 25.3398 23.0819 25.8059 23.5887C26.2719 24.0956 26.7839 24.4903 27.3391 24.7781C27.8943 25.0659 28.4215 25.2799 28.9232 25.4174C29.425 25.5575 29.8656 25.6441 30.2476 25.6772C30.6297 25.7128 30.8792 25.7307 30.999 25.7307H37.7991V8.26416H41.6678V27.651H41.6627Z" fill="white"/>
<path d="M64.4565 27.7352C64.4565 28.0052 64.4056 28.2573 64.3037 28.4891C64.2018 28.7208 64.0669 28.922 63.8988 29.0901C63.7281 29.2582 63.5295 29.3907 63.2977 29.49C63.0659 29.5868 62.8189 29.6352 62.5591 29.6352C62.3273 29.6352 62.093 29.5919 61.8562 29.5053C61.6193 29.4187 61.4105 29.2786 61.2245 29.085L47.451 14.7028V29.5995H43.6816V10.1643C43.6816 9.77716 43.7912 9.42823 44.0076 9.11242C44.2267 8.79916 44.5043 8.56484 44.843 8.40948C45.1996 8.26431 45.5689 8.22865 45.9433 8.29997C46.3202 8.37383 46.6437 8.54956 46.9136 8.82972L60.6872 23.1967V8.27704H64.4565V27.7352Z" fill="white"/>
<path d="M87.7971 20.6726C87.7971 21.9715 87.5704 23.1685 87.1196 24.2586C86.6688 25.3486 86.0474 26.2884 85.2527 27.078C84.4581 27.8675 83.5158 28.4838 82.4257 28.9295C81.3356 29.3752 80.1488 29.5994 78.8703 29.5994H68.4255C68.1479 29.5994 67.8907 29.551 67.6513 29.4516C67.4119 29.3523 67.2081 29.2173 67.0349 29.0416C66.8617 28.8684 66.7242 28.6621 66.6249 28.4253C66.5255 28.1884 66.4746 27.9286 66.4746 27.651V10.2125C66.4746 9.9451 66.523 9.69041 66.6249 9.45355C66.7242 9.21415 66.8592 9.00785 67.0349 8.82957C67.2081 8.65129 67.4144 8.51121 67.6513 8.41188C67.8881 8.31255 68.1479 8.26416 68.4255 8.26416H78.8703C80.1488 8.26416 81.3356 8.48828 82.4257 8.93399C83.5158 9.37969 84.4581 9.99858 85.2527 10.7856C86.0474 11.5751 86.6688 12.5174 87.1196 13.6126C87.5704 14.7078 87.7971 15.9023 87.7971 17.191V20.6726ZM83.9284 17.191C83.9284 16.4371 83.8061 15.7469 83.5642 15.1229C83.3197 14.4989 82.9758 13.9641 82.5301 13.5235C82.0819 13.0829 81.5496 12.739 80.9307 12.4971C80.3118 12.2551 79.6241 12.1329 78.8703 12.1329H70.3459V25.7307H78.8703C79.6241 25.7307 80.3118 25.6084 80.9307 25.3664C81.5521 25.1245 82.0844 24.7807 82.5301 24.3401C82.9758 23.8994 83.3197 23.3672 83.5642 22.7483C83.8061 22.1294 83.9284 21.4366 83.9284 20.6726V17.191Z" fill="white"/>
<path d="M109.188 29.5994H95.2311C94.6962 29.5994 94.1104 29.5051 93.4763 29.3167C92.8396 29.1282 92.2538 28.8175 91.7138 28.387C91.1713 27.9566 90.7205 27.3963 90.3589 26.7061C89.9972 26.0159 89.8164 25.1703 89.8164 24.1694V10.2125C89.8164 9.9451 89.8648 9.69041 89.9641 9.45355C90.0635 9.21415 90.201 9.00785 90.3742 8.82957C90.5474 8.65129 90.7537 8.51121 90.9905 8.41188C91.2274 8.31255 91.4872 8.26416 91.7648 8.26416H109.188V12.1329H93.6851V24.1694C93.6851 24.6762 93.8201 25.0608 94.0875 25.3308C94.3549 25.5982 94.7472 25.7332 95.2616 25.7332H109.188V29.6019V29.5994ZM107.446 20.8814H95.2311V16.9821H107.446V20.8814Z" fill="white"/>
<path d="M132.528 20.6726C132.528 21.9715 132.301 23.1685 131.85 24.2586C131.399 25.3486 130.778 26.2884 129.983 27.078C129.189 27.8675 128.246 28.4838 127.156 28.9295C126.066 29.3752 124.879 29.5994 123.601 29.5994H113.156C112.878 29.5994 112.621 29.551 112.382 29.4516C112.142 29.3523 111.939 29.2173 111.765 29.0416C111.592 28.8684 111.455 28.6621 111.355 28.4253C111.256 28.1884 111.205 27.9286 111.205 27.651V10.2125C111.205 9.9451 111.253 9.69041 111.355 9.45355C111.455 9.21415 111.59 9.00785 111.765 8.82957C111.939 8.65129 112.145 8.51121 112.382 8.41188C112.619 8.31255 112.878 8.26416 113.156 8.26416H123.601C124.879 8.26416 126.066 8.48828 127.156 8.93399C128.246 9.37969 129.189 9.99858 129.983 10.7856C130.778 11.5751 131.399 12.5174 131.85 13.6126C132.301 14.7078 132.528 15.9023 132.528 17.191V20.6726ZM128.659 17.191C128.659 16.4371 128.537 15.7469 128.295 15.1229C128.05 14.4989 127.706 13.9641 127.261 13.5235C126.812 13.0829 126.28 12.739 125.661 12.4971C125.042 12.2551 124.355 12.1329 123.601 12.1329H115.076V25.7307H123.601C124.355 25.7307 125.042 25.6084 125.661 25.3664C126.283 25.1245 126.815 24.7807 127.261 24.3401C127.706 23.8994 128.05 23.3672 128.295 22.7483C128.537 22.1294 128.659 21.4366 128.659 20.6726V17.191Z" fill="white"/>
<path d="M178.6 29.5994H164.643C164.108 29.5994 163.523 29.5051 162.888 29.3167C162.252 29.1282 161.666 28.8175 161.126 28.387C160.583 27.9566 160.133 27.3963 159.771 26.7061C159.409 26.0159 159.229 25.1703 159.229 24.1694V10.2125C159.229 9.9451 159.277 9.69041 159.376 9.45355C159.476 9.21415 159.613 9.00785 159.786 8.82957C159.959 8.65129 160.166 8.51121 160.403 8.41188C160.639 8.31255 160.899 8.26416 161.177 8.26416H178.6V12.1329H163.097V24.1694C163.097 24.6762 163.232 25.0608 163.5 25.3308C163.767 25.5982 164.159 25.7332 164.674 25.7332H178.6V29.6019V29.5994ZM176.861 20.8814H164.646V16.9821H176.861V20.8814Z" fill="white"/>
<path d="M191.365 15.8819L197.883 8.26416H203.165L193.983 18.9611L203.104 29.5994H197.852L191.365 22.0402L184.909 29.5994H179.642L188.747 18.9611L179.611 8.26416H184.848L191.365 15.8819Z" fill="white"/>
<path d="M225.105 12.1329H216.578V29.5994H212.71V12.1329H204.17V8.26416H225.103V12.1329H225.105Z" fill="white"/>
<path d="M321.285 1.93037C324.937 1.93037 327.907 4.90003 327.907 8.55226V29.862C327.907 33.5142 324.937 36.4839 321.285 36.4839H239.408C235.756 36.4839 232.786 33.5142 232.786 29.862V8.55226C232.786 4.90003 235.756 1.93037 239.408 1.93037H321.285ZM321.285 0.911621H239.408C235.188 0.911621 231.768 4.33208 231.768 8.55226V29.862C231.768 34.0822 235.188 37.5026 239.408 37.5026H321.285C325.505 37.5026 328.926 34.0822 328.926 29.862V8.55226C328.926 4.33208 325.505 0.911621 321.285 0.911621Z" fill="white"/>
</svg>
