<svg width="49" height="48" viewBox="0 0 49 48" fill="none" xmlns="http://www.w3.org/2000/svg">
<g clip-path="url(#clip0_4190_3821)">
<path d="M24.5 48C37.4787 48 48 37.4787 48 24.5C48 11.5213 37.4787 1 24.5 1C11.5213 1 1 11.5213 1 24.5C1 37.4787 11.5213 48 24.5 48Z" stroke="white" stroke-opacity="0.12"/>
<path d="M30.0426 30.6174C30.0413 30.6208 29.5438 31.8624 28.2095 31.2802C27.4841 30.9629 22.9694 27.2845 21.9597 26.5114C23.9267 24.7434 24.4673 24.5693 26.4329 22.7993L20.4767 25.8936C19.2687 25.4869 18.0601 25.0829 16.8534 24.6735C15.7771 24.328 15.6541 23.1307 16.8574 22.675L30.8755 17.1747C31.01 17.1176 32.5709 16.524 32.5709 17.9115L30.0426 30.6174ZM29.2978 30.3384L31.7743 17.851C31.7326 17.6661 31.1767 17.9075 31.1767 17.9075L17.125 23.4184C16.686 23.5643 16.6753 23.77 17.1129 23.926L20.3692 25.0224L27.7061 21.0528C28.0039 20.8713 28.4529 20.7429 28.7131 21.0555C28.9759 21.3721 28.7554 21.7614 28.5 22C28.2472 22.236 24.7152 25.1004 23.1993 26.463L28.5671 30.5717C29.0383 30.7539 29.246 30.4379 29.2978 30.3384Z" fill="white"/>
</g>
<defs>
<clipPath id="clip0_4190_3821">
<rect width="48" height="48" fill="white" transform="translate(0.195312)"/>
</clipPath>
</defs>
</svg>
